<svg width="444" height="444" viewBox="0 0 444 444" fill="none" xmlns="http://www.w3.org/2000/svg">
<rect width="444" height="444" rx="222" fill="#111111" style="fill:#111111;fill:color(display-p3 0.0667 0.0667 0.0667);fill-opacity:1;"/>
<path d="M151.187 140.4C145.482 140.4 141 135.912 141 130.2C141 124.488 145.482 120 151.187 120C156.892 120 161.375 124.488 161.375 130.2C161.375 135.912 156.892 140.4 151.187 140.4ZM293.812 140.4C288.107 140.4 283.625 135.912 283.625 130.2C283.625 124.488 288.107 120 293.812 120C299.517 120 304 124.488 304 130.2C304 135.912 299.517 140.4 293.812 140.4ZM212.312 140.4C206.607 140.4 202.125 135.912 202.125 130.2C202.125 124.488 206.607 120 212.312 120C218.017 120 222.5 124.488 222.5 130.2C222.5 135.912 218.017 140.4 212.312 140.4ZM232.687 140.4C226.982 140.4 222.5 135.912 222.5 130.2C222.5 124.488 226.982 120 232.687 120C238.392 120 242.875 124.488 242.875 130.2C242.875 135.912 238.392 140.4 232.687 140.4ZM253.062 140.4C247.357 140.4 242.875 135.912 242.875 130.2C242.875 124.488 247.357 120 253.062 120C258.767 120 263.25 124.488 263.25 130.2C263.25 135.912 258.767 140.4 253.062 140.4ZM273.437 140.4C267.732 140.4 263.25 135.912 263.25 130.2C263.25 124.488 267.732 120 273.437 120C279.142 120 283.625 124.488 283.625 130.2C283.625 135.912 279.142 140.4 273.437 140.4ZM191.937 140.4C186.232 140.4 181.75 135.912 181.75 130.2C181.75 124.488 186.232 120 191.937 120C197.642 120 202.125 124.488 202.125 130.2C202.125 135.912 197.642 140.4 191.937 140.4ZM171.562 140.4C165.858 140.4 161.375 135.912 161.375 130.2C161.375 124.488 165.858 120 171.562 120C177.267 120 181.75 124.488 181.75 130.2C181.75 135.912 177.267 140.4 171.562 140.4ZM171.562 160.8C165.858 160.8 161.375 156.312 161.375 150.6C161.375 144.888 165.858 140.4 171.562 140.4C177.267 140.4 181.75 144.888 181.75 150.6C181.75 156.312 177.267 160.8 171.562 160.8ZM212.312 160.8C206.607 160.8 202.125 156.312 202.125 150.6C202.125 144.888 206.607 140.4 212.312 140.4C218.017 140.4 222.5 144.888 222.5 150.6C222.5 156.312 218.017 160.8 212.312 160.8ZM293.812 160.8C288.107 160.8 283.625 156.312 283.625 150.6C283.625 144.888 288.107 140.4 293.812 140.4C299.517 140.4 304 144.888 304 150.6C304 156.312 299.517 160.8 293.812 160.8ZM151.187 160.8C145.482 160.8 141 156.312 141 150.6C141 144.888 145.482 140.4 151.187 140.4C156.892 140.4 161.375 144.888 161.375 150.6C161.375 156.312 156.892 160.8 151.187 160.8ZM273.437 160.8C267.732 160.8 263.25 156.312 263.25 150.6C263.25 144.888 267.732 140.4 273.437 140.4C279.142 140.4 283.625 144.888 283.625 150.6C283.625 156.312 279.142 160.8 273.437 160.8ZM253.062 160.8C247.357 160.8 242.875 156.312 242.875 150.6C242.875 144.888 247.357 140.4 253.062 140.4C258.767 140.4 263.25 144.888 263.25 150.6C263.25 156.312 258.767 160.8 253.062 160.8ZM232.687 160.8C226.982 160.8 222.5 156.312 222.5 150.6C222.5 144.888 226.982 140.4 232.687 140.4C238.392 140.4 242.875 144.888 242.875 150.6C242.875 156.312 238.392 160.8 232.687 160.8ZM191.937 160.8C186.232 160.8 181.75 156.312 181.75 150.6C181.75 144.888 186.232 140.4 191.937 140.4C197.642 140.4 202.125 144.888 202.125 150.6C202.125 156.312 197.642 160.8 191.937 160.8ZM171.562 181.2C165.858 181.2 161.375 176.712 161.375 171C161.375 165.288 165.858 160.8 171.562 160.8C177.267 160.8 181.75 165.288 181.75 171C181.75 176.712 177.267 181.2 171.562 181.2ZM212.312 181.2C206.607 181.2 202.125 176.712 202.125 171C202.125 165.288 206.607 160.8 212.312 160.8C218.017 160.8 222.5 165.288 222.5 171C222.5 176.712 218.017 181.2 212.312 181.2ZM151.187 181.2C145.482 181.2 141 176.712 141 171C141 165.288 145.482 160.8 151.187 160.8C156.892 160.8 161.375 165.288 161.375 171C161.375 176.712 156.892 181.2 151.187 181.2ZM191.937 181.2C186.232 181.2 181.75 176.712 181.75 171C181.75 165.288 186.232 160.8 191.937 160.8C197.642 160.8 202.125 165.288 202.125 171C202.125 176.712 197.642 181.2 191.937 181.2ZM212.312 201.6C206.607 201.6 202.125 197.112 202.125 191.4C202.125 185.688 206.607 181.2 212.312 181.2C218.017 181.2 222.5 185.688 222.5 191.4C222.5 197.112 218.017 201.6 212.312 201.6ZM191.937 201.6C186.232 201.6 181.75 197.112 181.75 191.4C181.75 185.688 186.232 181.2 191.937 181.2C197.642 181.2 202.125 185.688 202.125 191.4C202.125 197.112 197.642 201.6 191.937 201.6ZM151.187 201.6C145.482 201.6 141 197.112 141 191.4C141 185.688 145.482 181.2 151.187 181.2C156.892 181.2 161.375 185.688 161.375 191.4C161.375 197.112 156.892 201.6 151.187 201.6ZM171.562 201.6C165.858 201.6 161.375 197.112 161.375 191.4C161.375 185.688 165.858 181.2 171.562 181.2C177.267 181.2 181.75 185.688 181.75 191.4C181.75 197.112 177.267 201.6 171.562 201.6ZM232.687 222C226.982 222 222.5 217.512 222.5 211.8C222.5 206.088 226.982 201.6 232.687 201.6C238.392 201.6 242.875 206.088 242.875 211.8C242.875 217.512 238.392 222 232.687 222ZM293.812 222C288.107 222 283.625 217.512 283.625 211.8C283.625 206.088 288.107 201.6 293.812 201.6C299.517 201.6 304 206.088 304 211.8C304 217.512 299.517 222 293.812 222ZM212.312 222C206.607 222 202.125 217.512 202.125 211.8C202.125 206.088 206.607 201.6 212.312 201.6C218.017 201.6 222.5 206.088 222.5 211.8C222.5 217.512 218.017 222 212.312 222ZM253.062 222C247.357 222 242.875 217.512 242.875 211.8C242.875 206.088 247.357 201.6 253.062 201.6C258.767 201.6 263.25 206.088 263.25 211.8C263.25 217.512 258.767 222 253.062 222ZM273.437 222C267.732 222 263.25 217.512 263.25 211.8C263.25 206.088 267.732 201.6 273.437 201.6C279.142 201.6 283.625 206.088 283.625 211.8C283.625 217.512 279.142 222 273.437 222ZM151.187 222C145.482 222 141 217.512 141 211.8C141 206.088 145.482 201.6 151.187 201.6C156.892 201.6 161.375 206.088 161.375 211.8C161.375 217.512 156.892 222 151.187 222ZM171.562 222C165.858 222 161.375 217.512 161.375 211.8C161.375 206.088 165.858 201.6 171.562 201.6C177.267 201.6 181.75 206.088 181.75 211.8C181.75 217.512 177.267 222 171.562 222ZM191.937 222C186.232 222 181.75 217.512 181.75 211.8C181.75 206.088 186.232 201.6 191.937 201.6C197.642 201.6 202.125 206.088 202.125 211.8C202.125 217.512 197.642 222 191.937 222ZM293.812 242.4C288.107 242.4 283.625 237.912 283.625 232.2C283.625 226.488 288.107 222 293.812 222C299.517 222 304 226.488 304 232.2C304 237.912 299.517 242.4 293.812 242.4ZM171.562 242.4C165.858 242.4 161.375 237.912 161.375 232.2C161.375 226.488 165.858 222 171.562 222C177.267 222 181.75 226.488 181.75 232.2C181.75 237.912 177.267 242.4 171.562 242.4ZM151.187 242.4C145.482 242.4 141 237.912 141 232.2C141 226.488 145.482 222 151.187 222C156.892 222 161.375 226.488 161.375 232.2C161.375 237.912 156.892 242.4 151.187 242.4ZM273.437 242.4C267.732 242.4 263.25 237.912 263.25 232.2C263.25 226.488 267.732 222 273.437 222C279.142 222 283.625 226.488 283.625 232.2C283.625 237.912 279.142 242.4 273.437 242.4ZM253.062 242.4C247.357 242.4 242.875 237.912 242.875 232.2C242.875 226.488 247.357 222 253.062 222C258.767 222 263.25 226.488 263.25 232.2C263.25 237.912 258.767 242.4 253.062 242.4ZM212.312 242.4C206.607 242.4 202.125 237.912 202.125 232.2C202.125 226.488 206.607 222 212.312 222C218.017 222 222.5 226.488 222.5 232.2C222.5 237.912 218.017 242.4 212.312 242.4ZM191.937 242.4C186.232 242.4 181.75 237.912 181.75 232.2C181.75 226.488 186.232 222 191.937 222C197.642 222 202.125 226.488 202.125 232.2C202.125 237.912 197.642 242.4 191.937 242.4ZM232.687 242.4C226.982 242.4 222.5 237.912 222.5 232.2C222.5 226.488 226.982 222 232.687 222C238.392 222 242.875 226.488 242.875 232.2C242.875 237.912 238.392 242.4 232.687 242.4ZM151.187 262.8C145.482 262.8 141 258.312 141 252.6C141 246.888 145.482 242.4 151.187 242.4C156.892 242.4 161.375 246.888 161.375 252.6C161.375 258.312 156.892 262.8 151.187 262.8ZM171.562 262.8C165.858 262.8 161.375 258.312 161.375 252.6C161.375 246.888 165.858 242.4 171.562 242.4C177.267 242.4 181.75 246.888 181.75 252.6C181.75 258.312 177.267 262.8 171.562 262.8ZM191.937 262.8C186.232 262.8 181.75 258.312 181.75 252.6C181.75 246.888 186.232 242.4 191.937 242.4C197.642 242.4 202.125 246.888 202.125 252.6C202.125 258.312 197.642 262.8 191.937 262.8ZM212.312 262.8C206.607 262.8 202.125 258.312 202.125 252.6C202.125 246.888 206.607 242.4 212.312 242.4C218.017 242.4 222.5 246.888 222.5 252.6C222.5 258.312 218.017 262.8 212.312 262.8ZM151.187 283.2C145.482 283.2 141 278.712 141 273C141 267.288 145.482 262.8 151.187 262.8C156.892 262.8 161.375 267.288 161.375 273C161.375 278.712 156.892 283.2 151.187 283.2ZM171.562 283.2C165.858 283.2 161.375 278.712 161.375 273C161.375 267.288 165.858 262.8 171.562 262.8C177.267 262.8 181.75 267.288 181.75 273C181.75 278.712 177.267 283.2 171.562 283.2ZM191.937 283.2C186.232 283.2 181.75 278.712 181.75 273C181.75 267.288 186.232 262.8 191.937 262.8C197.642 262.8 202.125 267.288 202.125 273C202.125 278.712 197.642 283.2 191.937 283.2ZM212.312 283.2C206.607 283.2 202.125 278.712 202.125 273C202.125 267.288 206.607 262.8 212.312 262.8C218.017 262.8 222.5 267.288 222.5 273C222.5 278.712 218.017 283.2 212.312 283.2ZM151.187 303.6C145.482 303.6 141 299.112 141 293.4C141 287.688 145.482 283.2 151.187 283.2C156.892 283.2 161.375 287.688 161.375 293.4C161.375 299.112 156.892 303.6 151.187 303.6ZM212.312 303.6C206.607 303.6 202.125 299.112 202.125 293.4C202.125 287.688 206.607 283.2 212.312 283.2C218.017 283.2 222.5 287.688 222.5 293.4C222.5 299.112 218.017 303.6 212.312 303.6ZM171.562 303.6C165.858 303.6 161.375 299.112 161.375 293.4C161.375 287.688 165.858 283.2 171.562 283.2C177.267 283.2 181.75 287.688 181.75 293.4C181.75 299.112 177.267 303.6 171.562 303.6ZM191.937 303.6C186.232 303.6 181.75 299.112 181.75 293.4C181.75 287.688 186.232 283.2 191.937 283.2C197.642 283.2 202.125 287.688 202.125 293.4C202.125 299.112 197.642 303.6 191.937 303.6ZM151.187 324C145.482 324 141 319.512 141 313.8C141 308.088 145.482 303.6 151.187 303.6C156.892 303.6 161.375 308.088 161.375 313.8C161.375 319.512 156.892 324 151.187 324ZM191.937 324C186.232 324 181.75 319.512 181.75 313.8C181.75 308.088 186.232 303.6 191.937 303.6C197.642 303.6 202.125 308.088 202.125 313.8C202.125 319.512 197.642 324 191.937 324ZM212.312 324C206.607 324 202.125 319.512 202.125 313.8C202.125 308.088 206.607 303.6 212.312 303.6C218.017 303.6 222.5 308.088 222.5 313.8C222.5 319.512 218.017 324 212.312 324ZM171.562 324C165.858 324 161.375 319.512 161.375 313.8C161.375 308.088 165.858 303.6 171.562 303.6C177.267 303.6 181.75 308.088 181.75 313.8C181.75 319.512 177.267 324 171.562 324Z" fill="white" style="fill:white;fill-opacity:1;"/>
</svg>
